<?xml version="1.0" ?><svg data-name="Слой 1" id="ede40aee-b5cf-4e98-9f24-102137e6492e" viewBox="0 0 100 100" xmlns="http://www.w3.org/2000/svg"><title/><polygon points="26.674 49.405 25.705 52.07 59.243 59.88 60.071 56.037 26.674 49.405" style="fill:#a4c5bf;fill-rule:evenodd"/><path d="M83.00371,81.7063c0,1.59988-15.90678,2.89677-35.52866,2.89677S11.94639,83.30618,11.94639,81.7063s15.90672-2.89671,35.52866-2.89671S83.00371,80.10648,83.00371,81.7063Z" style="fill:#e2e2e2"/><path d="M74.25521,82.97835H52.0227a3.41272,3.41272,0,0,1-2.36423-3.86578c.4442-3.064,3.289-2.75556,6.642-2.22053s16.7611,1.94444,16.7611,1.94444Z" style="fill:#486962;fill-rule:evenodd"/><path d="M51.87883,15.93575a1.068,1.068,0,0,0-.76175.82184c-2.90885.52542-11.47476,3.08941-10.83136,15.013h1.467c-.6175-11.461,6.83925-13.77306,9.52276-14.20957a1.06962,1.06962,0,1,0,.60331-1.62522Z" style="fill:#ceeeeb;fill-rule:evenodd"/><path d="M57.44132,57.766l-32.34445-7.7404s-3.78932-1.11058-1.4425-7.803,5.38938-15.42158,8.59719-17.8995,11.7029-.76236,15.66229.1549,12.498,2.96357,16.304,4.27639c3.23812,1.11684,5.01347,3.79947,3.61911,8.60215-1.01435,3.49376-4.37372,13.107-6.12956,18.08755A3.62757,3.62757,0,0,1,57.44132,57.766Z" style="fill:#baddd7;fill-rule:evenodd"/><path d="M32.20323,51.7234s-3.85121-1.12879-1.46611-7.93062,3.07-14.13763,6.79167-17.41168c2.24111-1.97158,6.92866-2.2535,10.19807-1.946-4.03288-.92613-12.31637-2.55228-15.4753-.112-3.20781,2.47792-6.25044,11.207-8.59719,17.8995s1.4425,7.803,1.4425,7.803l35.52,8.50041.001-.00273Z" style="fill:#ceeeeb;fill-rule:evenodd"/><path d="M37.65971,32.47751c-.96373,3.24362-3.01084,10.42663-3.43706,12.93268s.4642,4.65664,3.43706,5.50153c2.1131.60058,12.887,2.43077,18.942,3.43911a4.76913,4.76913,0,0,0,5.352-3.33477c1.30706-4.35637,3.26743-10.88973,3.71862-12.39381.69136-2.30431,1.2679-5.14619-2.97608-6.52877s-13.9885-3.51434-17.79565-4.215S38.7763,28.71911,37.65971,32.47751Z" style="fill:#e8ffff;fill-rule:evenodd"/><path d="M63.46177,32.38079c2.75278,1.50043,2.23547,3.93715,1.62863,5.95985-.4512,1.504-2.4115,8.03738-3.71868,12.39369a4.76754,4.76754,0,0,1-3.91485,3.3515,5.90556,5.90556,0,0,1-1.303.14313c-.13768,0-.26786-.01128-.4-.01964.2906.04864.57568.0961.84787.14151a4.769,4.769,0,0,0,5.352-3.33489c1.30718-4.35638,3.26749-10.88961,3.71868-12.39369C66.31883,36.46745,66.864,33.8428,63.46177,32.38079Z" style="fill:#baddd7;fill-rule:evenodd"/><path d="M25.82862,50.99221l31.34417,7.56995a3.7869,3.7869,0,0,1,2.84311,4.32341L56.99955,80.41349a3.29635,3.29635,0,0,1-3.18886,2.46163H23.45523A5.753,5.753,0,0,1,17.7597,76.311l3.11816-21.89223A4.10251,4.10251,0,0,1,25.82862,50.99221Z" style="fill:#baddd7;fill-rule:evenodd"/><path d="M27.69852,77.235l3.2484-22.80677A4.24528,4.24528,0,0,1,31.8666,52.333l-6.038-1.34076a4.10255,4.10255,0,0,0-4.95076,3.42653L17.7597,76.311a5.753,5.753,0,0,0,5.69553,6.56415h6.58156A5.98441,5.98441,0,0,1,27.69852,77.235Z" style="fill:#ceeeeb;fill-rule:evenodd"/><path d="M42.03245,39.8169c.47635-.67716.95952-1.15556,1.33927-.87909s.3015,1.04961-.17479,1.72677-1.17037,1.0019-1.55012.7255S41.5561,40.49407,42.03245,39.8169Z" style="fill:#486962;fill-rule:evenodd"/><path d="M54.82975,42.70544c.45659-.68931.92551-1.17992,1.31239-.9125s.33056,1.04329-.126,1.73273-1.14032,1.03139-1.52733.76391C54.102,44.02209,54.37323,43.39487,54.82975,42.70544Z" style="fill:#486962;fill-rule:evenodd"/><path d="M48.67789,47.63011a.4767.4767,0,0,1-.27257.04257,9.97745,9.97745,0,0,1-2.21948-.55566.47908.47908,0,0,1,.36272-.88684,9.16606,9.16606,0,0,0,1.9875.49382.47888.47888,0,0,1,.14183.90611Z" style="fill:#486962"/><path d="M54.42218,82.97835H32.1896a3.41278,3.41278,0,0,1-2.36428-3.86578c.44431-3.064,3.289-2.75556,6.64209-2.22053s16.761,1.94444,16.761,1.94444Z" style="fill:#486962;fill-rule:evenodd"/><path d="M31.56151,75.31459l17.01947.18073,7.65571-27.7131a1.99264,1.99264,0,0,1,2.23008-1.43791l28.2182,2.888a1.61941,1.61941,0,0,1,1.31244,2.02066L81.02693,78.70655a2.37859,2.37859,0,0,1-2.444,1.75614L31.48059,77.5469A1.11742,1.11742,0,0,1,30.434,76.37213h0A1.11722,1.11722,0,0,1,31.56151,75.31459Z" style="fill:#b9d9d9;fill-rule:evenodd"/><path d="M31.48059,77.5469,49.2947,78.64961,58.2232,46.329a1.98713,1.98713,0,0,0-1.98651,1.45322L48.581,75.49532l-17.01953-.18073a1.11725,1.11725,0,0,0-.08086,2.23231Z" style="fill:#a4c5bf;fill-rule:evenodd"/><path d="M61.30232,68.25333s-4.71964-2.19569-7.00809,4.36046a59.54194,59.54194,0,0,0-2.13931,7.57813,2.31626,2.31626,0,0,0,2.26726,2.78643H54.928l1.57634-2.82112Z" style="fill:#486962;fill-rule:evenodd"/><path d="M54.62993,82.97835h1.3987a2.145,2.145,0,0,0,1.91222-1.16709c1.68266-3.28923,6.08092-12.46718,3.36147-13.55793-2.71492-1.089-6.428,9.44388-7.69269,13.32428A1.0702,1.0702,0,0,0,54.62993,82.97835Z" style="fill:#66827c;fill-rule:evenodd"/><path d="M71.25168,63.66491c-.59215,1.40675-1.90367,2.19712-2.92924,1.76538s-1.37676-1.92214-.7846-3.32889,1.90379-2.19711,2.92936-1.76537S71.844,62.25816,71.25168,63.66491Z" style="fill:#e0ecec;fill-rule:evenodd"/><path d="M80.61272,68.25333s-4.71965-2.19569-7.00815,4.36046a59.52947,59.52947,0,0,0-2.13925,7.57813,2.31622,2.31622,0,0,0,2.26719,2.78643h.50585l1.57633-2.82112Z" style="fill:#486962;fill-rule:evenodd"/><path d="M73.94021,82.97835H75.339a2.145,2.145,0,0,0,1.91229-1.16709c1.68259-3.28923,6.08092-12.46718,3.36147-13.55793-2.71492-1.089-6.42808,9.44388-7.69269,13.32428A1.07018,1.07018,0,0,0,73.94021,82.97835Z" style="fill:#66827c;fill-rule:evenodd"/><path d="M47.61508,70.85734l.02844,3.57189a1.05987,1.05987,0,0,1-.94954,1.14652h0a1.06,1.06,0,0,1-1.13128-.78448l-1.05586-3.05056-.21934.12417.14139,2.66863a1.02224,1.02224,0,0,1-1.01615,1.13307h0a1.02213,1.02213,0,0,1-.99824-.80238l-.79043-2.95837-.34085.18564.10639,2.40208a1.05932,1.05932,0,0,1-1.0532,1.173h0a1.05948,1.05948,0,0,1-1.01442-.75406L38.8268,73.5608a2.53123,2.53123,0,0,1-3.38663-1.30786,2.10266,2.10266,0,0,1,1.34045-2.69609,20.81916,20.81916,0,0,1,7.698-1.655A3.22429,3.22429,0,0,1,47.61508,70.85734Z" style="fill:#486962;fill-rule:evenodd"/><path d="M25.77781,57.2543a21.43867,21.43867,0,0,0-3.22659,6.74464,10.29983,10.29983,0,0,0-.34543,3.449,5.714,5.714,0,0,0,1.04113,2.92336,5.53923,5.53923,0,0,0,.50435.59854c.08861.09312.19481.19294.28186.27213a2.57313,2.57313,0,0,0,.24134.18966,4.06482,4.06482,0,0,0,1.33289.56539,8.50834,8.50834,0,0,0,1.71178.22646,14.59222,14.59222,0,0,0,1.86284-.04913,26.74727,26.74727,0,0,0,3.836-.656c.64024-.15446,1.27744-.3326,1.91043-.52406q.47473-.14378.94409-.30038l.46507-.16116.22882-.08266.21339-.0798.0383-.01431a1.51866,1.51866,0,0,1,1.076,2.84032l-.26891.10317-.25571.09461-.50832.181q-.50727.17826-1.01683.34245c-.67983.21965-1.366.41941-2.05882.60548a29.87126,29.87126,0,0,1-4.2728.84836,18.8203,18.8203,0,0,1-2.25734.14177,11.82539,11.82539,0,0,1-2.3833-.22764,7.4721,7.4721,0,0,1-2.47737-.96206,6.08821,6.08821,0,0,1-.58875-.42195c-.175-.1435-.32591-.27226-.48335-.41966a9.09285,9.09285,0,0,1-.87432-.9343,8.89513,8.89513,0,0,1-1.31375-2.216,10.03306,10.03306,0,0,1-.6517-2.437,12.717,12.717,0,0,1-.09684-2.424,16.33471,16.33471,0,0,1,.28545-2.32562,23.11479,23.11479,0,0,1,1.32211-4.33413A30.256,30.256,0,0,1,21.984,54.82l.00049-.00087a2.25548,2.25548,0,0,1,3.88573,2.29124C25.84188,57.15832,25.809,57.20925,25.77781,57.2543Z" style="fill:#486962"/><path d="M35.71224,53.37985l-.99608,6.79942a.62359.62359,0,0,0,.54377.70969h0a.62377.62377,0,0,0,.68813-.51532L37.075,53.709Z" style="fill:#a4c5bf"/></svg>